<mxfile host="app.diagrams.net" agent="Mozilla/5.0 (Windows NT 10.0; Win64; x64) AppleWebKit/537.36 (KHTML, like Gecko) Chrome/130.0.0.0 Safari/537.36" version="24.8.2">
  <diagram name="第 1 页" id="nnJi8OWh8MLcr6O-uTRx">
    <mxGraphModel dx="3827" dy="1514" grid="1" gridSize="10" guides="1" tooltips="1" connect="1" arrows="1" fold="1" page="1" pageScale="1" pageWidth="827" pageHeight="1169" math="0" shadow="0">
      <root>
        <mxCell id="0" />
        <mxCell id="1" parent="0" />
        <mxCell id="zw7JEHPBCJFOiCwySAU9-83" value="" style="rounded=0;whiteSpace=wrap;html=1;fillColor=#f5f5f5;fontColor=#333333;strokeColor=default;strokeWidth=2;" parent="1" vertex="1">
          <mxGeometry x="-580" y="300" width="2210" height="530" as="geometry" />
        </mxCell>
        <mxCell id="zw7JEHPBCJFOiCwySAU9-82" value="" style="rounded=0;whiteSpace=wrap;html=1;fillColor=#e1d5e7;strokeColor=#9673a6;" parent="1" vertex="1">
          <mxGeometry x="1250" y="410" width="370" height="409" as="geometry" />
        </mxCell>
        <mxCell id="zw7JEHPBCJFOiCwySAU9-60" value="" style="rounded=0;whiteSpace=wrap;html=1;fillColor=#dae8fc;strokeColor=#6c8ebf;fontSize=16;" parent="1" vertex="1">
          <mxGeometry x="-570" y="309" width="470" height="410" as="geometry" />
        </mxCell>
        <mxCell id="zw7JEHPBCJFOiCwySAU9-54" value="" style="rounded=0;whiteSpace=wrap;html=1;fillColor=#ffe6cc;strokeColor=#d79b00;fontSize=16;" parent="1" vertex="1">
          <mxGeometry x="499" y="309" width="620" height="330" as="geometry" />
        </mxCell>
        <mxCell id="zw7JEHPBCJFOiCwySAU9-25" value="" style="group;fontSize=16;" parent="1" vertex="1" connectable="0">
          <mxGeometry x="680" y="669" width="150" height="150" as="geometry" />
        </mxCell>
        <mxCell id="zw7JEHPBCJFOiCwySAU9-6" value="" style="rounded=0;whiteSpace=wrap;html=1;fontSize=16;fillColor=#f8cecc;strokeColor=#b85450;" parent="zw7JEHPBCJFOiCwySAU9-25" vertex="1">
          <mxGeometry width="150" height="150" as="geometry" />
        </mxCell>
        <mxCell id="zw7JEHPBCJFOiCwySAU9-15" value="&lt;font style=&quot;font-size: 16px;&quot;&gt;&lt;b&gt;HH-D03&lt;/b&gt;&lt;/font&gt;" style="rounded=0;whiteSpace=wrap;html=1;fontSize=16;" parent="zw7JEHPBCJFOiCwySAU9-25" vertex="1">
          <mxGeometry x="30" y="11" width="90" height="40" as="geometry" />
        </mxCell>
        <mxCell id="zw7JEHPBCJFOiCwySAU9-16" value="介绍展牌" style="rounded=0;whiteSpace=wrap;html=1;fontSize=16;" parent="zw7JEHPBCJFOiCwySAU9-25" vertex="1">
          <mxGeometry x="15" y="60" width="120" height="80" as="geometry" />
        </mxCell>
        <mxCell id="zw7JEHPBCJFOiCwySAU9-26" value="" style="group;fontSize=16;fillColor=#f8cecc;strokeColor=#b85450;" parent="1" vertex="1" connectable="0">
          <mxGeometry x="830" y="669" width="150" height="150" as="geometry" />
        </mxCell>
        <mxCell id="zw7JEHPBCJFOiCwySAU9-7" value="" style="rounded=0;whiteSpace=wrap;html=1;fontSize=16;fillColor=#f8cecc;strokeColor=#b85450;" parent="zw7JEHPBCJFOiCwySAU9-26" vertex="1">
          <mxGeometry width="150" height="150" as="geometry" />
        </mxCell>
        <mxCell id="zw7JEHPBCJFOiCwySAU9-17" value="&lt;font style=&quot;font-size: 16px;&quot;&gt;HH-D05&lt;/font&gt;" style="rounded=0;whiteSpace=wrap;html=1;fontSize=16;fontStyle=1" parent="zw7JEHPBCJFOiCwySAU9-26" vertex="1">
          <mxGeometry x="30" y="11" width="90" height="40" as="geometry" />
        </mxCell>
        <mxCell id="zw7JEHPBCJFOiCwySAU9-18" value="介绍展牌" style="rounded=0;whiteSpace=wrap;html=1;fontSize=16;" parent="zw7JEHPBCJFOiCwySAU9-26" vertex="1">
          <mxGeometry x="15" y="60" width="120" height="80" as="geometry" />
        </mxCell>
        <mxCell id="zw7JEHPBCJFOiCwySAU9-38" value="KT版（15块21开发板）" style="rounded=0;whiteSpace=wrap;html=1;fontSize=16;" parent="1" vertex="1">
          <mxGeometry x="-560" y="320" width="320" height="300" as="geometry" />
        </mxCell>
        <mxCell id="zw7JEHPBCJFOiCwySAU9-39" value="" style="group;fontSize=16;fillColor=#f8cecc;strokeColor=#b85450;" parent="1" vertex="1" connectable="0">
          <mxGeometry x="-101" y="309" width="600" height="510" as="geometry" />
        </mxCell>
        <mxCell id="zw7JEHPBCJFOiCwySAU9-37" value="" style="rounded=0;whiteSpace=wrap;html=1;fontSize=16;fillColor=#d5e8d4;strokeColor=#82b366;" parent="zw7JEHPBCJFOiCwySAU9-39" vertex="1">
          <mxGeometry width="600" height="510" as="geometry" />
        </mxCell>
        <mxCell id="zw7JEHPBCJFOiCwySAU9-30" value="PC电脑" style="rounded=0;whiteSpace=wrap;html=1;fontSize=16;" parent="zw7JEHPBCJFOiCwySAU9-39" vertex="1">
          <mxGeometry x="11" y="10" width="320" height="280" as="geometry" />
        </mxCell>
        <mxCell id="zw7JEHPBCJFOiCwySAU9-31" value="点阵纸笔" style="rounded=0;whiteSpace=wrap;html=1;fontSize=16;" parent="zw7JEHPBCJFOiCwySAU9-39" vertex="1">
          <mxGeometry x="171" y="295" width="140" height="205" as="geometry" />
        </mxCell>
        <mxCell id="zw7JEHPBCJFOiCwySAU9-32" value="介绍展牌" style="rounded=0;whiteSpace=wrap;html=1;fontSize=16;" parent="zw7JEHPBCJFOiCwySAU9-39" vertex="1">
          <mxGeometry x="32" y="311" width="120" height="80" as="geometry" />
        </mxCell>
        <mxCell id="zw7JEHPBCJFOiCwySAU9-61" value="" style="rounded=0;whiteSpace=wrap;html=1;fillColor=#cdeb8b;strokeColor=#36393d;fontSize=16;" parent="zw7JEHPBCJFOiCwySAU9-39" vertex="1">
          <mxGeometry x="351" width="249" height="250" as="geometry" />
        </mxCell>
        <mxCell id="zw7JEHPBCJFOiCwySAU9-33" value="HH-EG01" style="rounded=0;whiteSpace=wrap;html=1;fontSize=16;" parent="zw7JEHPBCJFOiCwySAU9-39" vertex="1">
          <mxGeometry x="361" y="10" width="230" height="120" as="geometry" />
        </mxCell>
        <mxCell id="zw7JEHPBCJFOiCwySAU9-34" value="介绍展牌" style="rounded=0;whiteSpace=wrap;html=1;fontSize=16;" parent="zw7JEHPBCJFOiCwySAU9-39" vertex="1">
          <mxGeometry x="416" y="150" width="120" height="80" as="geometry" />
        </mxCell>
        <mxCell id="zw7JEHPBCJFOiCwySAU9-23" value="" style="group;fontSize=16;fontStyle=1" parent="zw7JEHPBCJFOiCwySAU9-39" vertex="1" connectable="0">
          <mxGeometry x="331" y="350" width="150" height="150" as="geometry" />
        </mxCell>
        <mxCell id="zw7JEHPBCJFOiCwySAU9-1" value="" style="rounded=0;whiteSpace=wrap;html=1;fontSize=16;fillColor=#f8cecc;strokeColor=#b85450;" parent="zw7JEHPBCJFOiCwySAU9-23" vertex="1">
          <mxGeometry y="10" width="150" height="150" as="geometry" />
        </mxCell>
        <mxCell id="zw7JEHPBCJFOiCwySAU9-9" value="HH-M01-3" style="rounded=0;whiteSpace=wrap;html=1;fontSize=16;fontStyle=1" parent="zw7JEHPBCJFOiCwySAU9-23" vertex="1">
          <mxGeometry x="30" y="21" width="90" height="40" as="geometry" />
        </mxCell>
        <mxCell id="zw7JEHPBCJFOiCwySAU9-10" value="介绍展牌" style="rounded=0;whiteSpace=wrap;html=1;fontSize=16;" parent="zw7JEHPBCJFOiCwySAU9-23" vertex="1">
          <mxGeometry x="15" y="70" width="120" height="80" as="geometry" />
        </mxCell>
        <mxCell id="zw7JEHPBCJFOiCwySAU9-35" value="活动二维码" style="rounded=1;whiteSpace=wrap;html=1;fontSize=16;" parent="zw7JEHPBCJFOiCwySAU9-39" vertex="1">
          <mxGeometry x="22" y="410" width="140" height="90" as="geometry" />
        </mxCell>
        <mxCell id="zw7JEHPBCJFOiCwySAU9-62" value="HH-K02" style="text;html=1;align=center;verticalAlign=middle;resizable=0;points=[];autosize=1;strokeColor=none;fillColor=none;fontSize=19;fontStyle=1" parent="zw7JEHPBCJFOiCwySAU9-39" vertex="1">
          <mxGeometry x="391" y="276" width="90" height="40" as="geometry" />
        </mxCell>
        <mxCell id="zw7JEHPBCJFOiCwySAU9-42" value="" style="group;fontSize=16;fillColor=#f8cecc;strokeColor=#b85450;" parent="1" vertex="1" connectable="0">
          <mxGeometry x="980" y="549" width="270" height="270" as="geometry" />
        </mxCell>
        <mxCell id="zw7JEHPBCJFOiCwySAU9-19" value="" style="rounded=0;whiteSpace=wrap;html=1;fontSize=16;fillColor=#f8cecc;strokeColor=#b85450;" parent="zw7JEHPBCJFOiCwySAU9-42" vertex="1">
          <mxGeometry width="270" height="270" as="geometry" />
        </mxCell>
        <mxCell id="zw7JEHPBCJFOiCwySAU9-28" value="&lt;font style=&quot;font-size: 16px;&quot;&gt;HH-K01&lt;/font&gt;" style="rounded=0;whiteSpace=wrap;html=1;fontSize=16;fontStyle=1" parent="zw7JEHPBCJFOiCwySAU9-42" vertex="1">
          <mxGeometry x="14.464285714285714" y="10" width="240" height="165" as="geometry" />
        </mxCell>
        <mxCell id="zw7JEHPBCJFOiCwySAU9-29" value="介绍展牌" style="rounded=0;whiteSpace=wrap;html=1;fontSize=16;" parent="zw7JEHPBCJFOiCwySAU9-42" vertex="1">
          <mxGeometry x="72.32142857142857" y="180" width="120" height="80" as="geometry" />
        </mxCell>
        <mxCell id="zw7JEHPBCJFOiCwySAU9-22" value="" style="group;fontSize=16;" parent="1" vertex="1" connectable="0">
          <mxGeometry x="380" y="670" width="150" height="150" as="geometry" />
        </mxCell>
        <mxCell id="zw7JEHPBCJFOiCwySAU9-44" value="" style="group;fontSize=16;" parent="zw7JEHPBCJFOiCwySAU9-22" vertex="1" connectable="0">
          <mxGeometry width="150" height="150" as="geometry" />
        </mxCell>
        <mxCell id="zw7JEHPBCJFOiCwySAU9-3" value="" style="rounded=0;whiteSpace=wrap;html=1;fontSize=16;fillColor=#f8cecc;strokeColor=#b85450;" parent="zw7JEHPBCJFOiCwySAU9-44" vertex="1">
          <mxGeometry y="-1" width="150" height="150" as="geometry" />
        </mxCell>
        <mxCell id="zw7JEHPBCJFOiCwySAU9-11" value="HH-D01" style="rounded=0;whiteSpace=wrap;html=1;fontSize=16;fontStyle=1" parent="zw7JEHPBCJFOiCwySAU9-44" vertex="1">
          <mxGeometry x="30" y="10" width="90" height="40" as="geometry" />
        </mxCell>
        <mxCell id="zw7JEHPBCJFOiCwySAU9-12" value="介绍展牌" style="rounded=0;whiteSpace=wrap;html=1;fontSize=16;" parent="zw7JEHPBCJFOiCwySAU9-44" vertex="1">
          <mxGeometry x="15" y="59" width="120" height="80" as="geometry" />
        </mxCell>
        <mxCell id="zw7JEHPBCJFOiCwySAU9-24" value="" style="group;fontSize=16;fillColor=#f8cecc;strokeColor=#b85450;" parent="1" vertex="1" connectable="0">
          <mxGeometry x="530" y="669" width="150" height="150" as="geometry" />
        </mxCell>
        <mxCell id="zw7JEHPBCJFOiCwySAU9-4" value="" style="rounded=0;whiteSpace=wrap;html=1;fontSize=16;fillColor=#f8cecc;strokeColor=#b85450;" parent="zw7JEHPBCJFOiCwySAU9-24" vertex="1">
          <mxGeometry width="150" height="150" as="geometry" />
        </mxCell>
        <mxCell id="zw7JEHPBCJFOiCwySAU9-13" value="&lt;font style=&quot;font-size: 16px;&quot;&gt;HH-D02&lt;/font&gt;" style="rounded=0;whiteSpace=wrap;html=1;fontSize=16;fontStyle=1" parent="zw7JEHPBCJFOiCwySAU9-24" vertex="1">
          <mxGeometry x="30" y="11" width="90" height="40" as="geometry" />
        </mxCell>
        <mxCell id="zw7JEHPBCJFOiCwySAU9-14" value="介绍展牌" style="rounded=0;whiteSpace=wrap;html=1;fontSize=16;" parent="zw7JEHPBCJFOiCwySAU9-24" vertex="1">
          <mxGeometry x="15" y="60" width="120" height="80" as="geometry" />
        </mxCell>
        <mxCell id="zw7JEHPBCJFOiCwySAU9-51" value="PC电脑" style="rounded=0;whiteSpace=wrap;html=1;fontSize=16;" parent="1" vertex="1">
          <mxGeometry x="510" y="320" width="320" height="280" as="geometry" />
        </mxCell>
        <mxCell id="zw7JEHPBCJFOiCwySAU9-52" value="DAYU200+63+100B" style="rounded=0;whiteSpace=wrap;html=1;fontSize=16;" parent="1" vertex="1">
          <mxGeometry x="860" y="320" width="250" height="220" as="geometry" />
        </mxCell>
        <mxCell id="zw7JEHPBCJFOiCwySAU9-53" value="介绍展牌" style="rounded=0;whiteSpace=wrap;html=1;fontSize=16;" parent="1" vertex="1">
          <mxGeometry x="845" y="550" width="120" height="80" as="geometry" />
        </mxCell>
        <mxCell id="zw7JEHPBCJFOiCwySAU9-55" value="介绍展牌" style="rounded=0;whiteSpace=wrap;html=1;fontSize=16;" parent="1" vertex="1">
          <mxGeometry x="-460" y="630" width="120" height="80" as="geometry" />
        </mxCell>
        <mxCell id="zw7JEHPBCJFOiCwySAU9-56" value="HH-G02" style="rounded=0;whiteSpace=wrap;html=1;fontSize=16;" parent="1" vertex="1">
          <mxGeometry x="-227" y="480" width="110" height="140" as="geometry" />
        </mxCell>
        <mxCell id="zw7JEHPBCJFOiCwySAU9-58" value="布线" style="rounded=1;whiteSpace=wrap;html=1;fontSize=16;" parent="1" vertex="1">
          <mxGeometry x="-227" y="320" width="107" height="140" as="geometry" />
        </mxCell>
        <mxCell id="zw7JEHPBCJFOiCwySAU9-59" value="介绍展牌" style="rounded=0;whiteSpace=wrap;html=1;fontSize=16;" parent="1" vertex="1">
          <mxGeometry x="-232" y="630" width="120" height="80" as="geometry" />
        </mxCell>
        <mxCell id="zw7JEHPBCJFOiCwySAU9-77" value="HH-K04" style="text;html=1;align=center;verticalAlign=middle;resizable=0;points=[];autosize=1;strokeColor=none;fillColor=none;fontSize=19;fontStyle=1" parent="1" vertex="1">
          <mxGeometry x="600" y="600" width="90" height="40" as="geometry" />
        </mxCell>
        <mxCell id="zw7JEHPBCJFOiCwySAU9-78" value="HH-K03" style="text;html=1;align=center;verticalAlign=middle;resizable=0;points=[];autosize=1;strokeColor=none;fillColor=none;fontSize=19;fontStyle=1" parent="1" vertex="1">
          <mxGeometry x="-560" y="660" width="90" height="40" as="geometry" />
        </mxCell>
        <mxCell id="zw7JEHPBCJFOiCwySAU9-79" value="玲珑派" style="rounded=0;whiteSpace=wrap;html=1;fontSize=16;fontStyle=1" parent="1" vertex="1">
          <mxGeometry x="1260" y="419" width="350" height="300" as="geometry" />
        </mxCell>
        <mxCell id="zw7JEHPBCJFOiCwySAU9-80" value="介绍展牌" style="rounded=0;whiteSpace=wrap;html=1;fontSize=16;" parent="1" vertex="1">
          <mxGeometry x="1375.0014285714287" y="730" width="120" height="80" as="geometry" />
        </mxCell>
        <mxCell id="zw7JEHPBCJFOiCwySAU9-84" value="" style="endArrow=none;html=1;rounded=0;strokeWidth=3;" parent="1" edge="1">
          <mxGeometry width="50" height="50" relative="1" as="geometry">
            <mxPoint x="-580" y="830" as="sourcePoint" />
            <mxPoint x="-580" y="880" as="targetPoint" />
          </mxGeometry>
        </mxCell>
        <mxCell id="zw7JEHPBCJFOiCwySAU9-85" value="" style="endArrow=none;html=1;rounded=0;strokeWidth=3;" parent="1" edge="1">
          <mxGeometry width="50" height="50" relative="1" as="geometry">
            <mxPoint x="1630" y="830" as="sourcePoint" />
            <mxPoint x="1630" y="880" as="targetPoint" />
          </mxGeometry>
        </mxCell>
        <mxCell id="zw7JEHPBCJFOiCwySAU9-86" value="" style="endArrow=classic;startArrow=classic;html=1;rounded=0;strokeWidth=3;" parent="1" edge="1">
          <mxGeometry width="50" height="50" relative="1" as="geometry">
            <mxPoint x="-580" y="850" as="sourcePoint" />
            <mxPoint x="1630" y="850" as="targetPoint" />
          </mxGeometry>
        </mxCell>
        <mxCell id="zw7JEHPBCJFOiCwySAU9-87" value="&lt;font style=&quot;font-size: 40px;&quot;&gt;2.21 m&lt;/font&gt;" style="text;html=1;align=center;verticalAlign=middle;resizable=0;points=[];autosize=1;strokeColor=none;fillColor=none;strokeWidth=1;fontSize=40;" parent="1" vertex="1">
          <mxGeometry x="480" y="850" width="150" height="60" as="geometry" />
        </mxCell>
        <mxCell id="zw7JEHPBCJFOiCwySAU9-90" value="" style="endArrow=none;html=1;rounded=0;strokeWidth=3;" parent="1" edge="1">
          <mxGeometry width="50" height="50" relative="1" as="geometry">
            <mxPoint x="-580" y="830" as="sourcePoint" />
            <mxPoint x="-630" y="830" as="targetPoint" />
          </mxGeometry>
        </mxCell>
        <mxCell id="zw7JEHPBCJFOiCwySAU9-91" value="" style="endArrow=none;html=1;rounded=0;strokeWidth=3;" parent="1" edge="1">
          <mxGeometry width="50" height="50" relative="1" as="geometry">
            <mxPoint x="-580" y="300" as="sourcePoint" />
            <mxPoint x="-630" y="300" as="targetPoint" />
          </mxGeometry>
        </mxCell>
        <mxCell id="zw7JEHPBCJFOiCwySAU9-92" value="" style="endArrow=classic;startArrow=classic;html=1;rounded=0;strokeWidth=3;" parent="1" edge="1">
          <mxGeometry width="50" height="50" relative="1" as="geometry">
            <mxPoint x="-610" y="830" as="sourcePoint" />
            <mxPoint x="-610" y="300" as="targetPoint" />
          </mxGeometry>
        </mxCell>
        <mxCell id="zw7JEHPBCJFOiCwySAU9-93" value="&lt;font style=&quot;font-size: 40px;&quot;&gt;0.53 m&lt;/font&gt;" style="text;html=1;align=center;verticalAlign=middle;resizable=0;points=[];autosize=1;strokeColor=none;fillColor=none;strokeWidth=1;fontSize=40;" parent="1" vertex="1">
          <mxGeometry x="-770" y="549" width="150" height="60" as="geometry" />
        </mxCell>
      </root>
    </mxGraphModel>
  </diagram>
</mxfile>
